<svg xmlns="http://www.w3.org/2000/svg" xmlns:xlink="http://www.w3.org/1999/xlink" width="512" height="512" viewBox="0 0 512 512">
  <defs>
    <clipPath id="clip-Launcher_Icon_-_Bike_Foreground">
      <rect width="512" height="512"/>
    </clipPath>
  </defs>
  <g id="Launcher_Icon_-_Bike_Foreground" data-name="Launcher Icon - Bike Foreground" clip-path="url(#clip-Launcher_Icon_-_Bike_Foreground)">
    <rect width="512" height="512" fill="rgba(38,65,143,0)"/>
    <g id="pedal_bike_black_48dp" transform="translate(30 30)">
      <g id="Grupo_6" data-name="Grupo 6">
        <rect id="Retângulo_14" data-name="Retângulo 14" width="452" height="452" fill="none"/>
      </g>
      <g id="Grupo_7" data-name="Grupo 7" transform="translate(22.61 90.454)">
        <path id="Caminho_1" data-name="Caminho 1" d="M313.522,117.068,277.792,18.925A22.436,22.436,0,0,0,256.536,4H204.525V26.614h52.011l33.016,90.454H176.258l-8.367-22.613h36.634V71.841H114.071V94.454h29.85l33.016,90.454H158.167c-5.653-40.93-41.157-71.006-84.8-67.614C36.28,120.233,5.3,150.309,1.455,187.4c-4.975,48.393,31.433,87.967,78.7,87.967,40.478,0,72.589-29.171,78.017-67.841h92.715c5.653,40.93,41.383,71.006,84.8,67.614,37.086-2.94,68.067-33.016,71.911-70.1,4.975-48.393-31.433-87.967-78.695-87.967ZM184.4,139.681h88.645a76.807,76.807,0,0,0-22.161,45.227H200.906ZM80.15,252.749a56.534,56.534,0,0,1,0-113.068c27.815,0,50.428,19.221,55.4,45.227H68.844v22.613h66.71C130.578,233.527,107.965,252.749,80.15,252.749Zm248.749,0A56.544,56.544,0,0,1,300.406,147.37l23.292,64,21.257-7.689-23.066-63.318c2.488-.226,4.749-.678,7.01-.678a56.534,56.534,0,1,1,0,113.068Z" transform="translate(-1 -4)" fill="#fff"/>
      </g>
    </g>
  </g>
</svg>
