<svg xmlns="http://www.w3.org/2000/svg" xmlns:xlink="http://www.w3.org/1999/xlink" width="512" height="512" viewBox="0 0 512 512">
  <defs>
    <clipPath id="clip-Launcher_Icon_-_Bike_Admin_Foreground">
      <rect width="512" height="512"/>
    </clipPath>
  </defs>
  <g id="Launcher_Icon_-_Bike_Admin_Foreground" data-name="Launcher Icon - Bike Admin Foreground" clip-path="url(#clip-Launcher_Icon_-_Bike_Admin_Foreground)">
    <rect width="512" height="512" fill="rgba(38,65,143,0)"/>
    <g id="pedal_bike_black_48dp" transform="translate(30)">
      <g id="Grupo_6" data-name="Grupo 6">
        <rect id="Retângulo_14" data-name="Retângulo 14" width="452" height="452" fill="none"/>
      </g>
      <g id="Grupo_7" data-name="Grupo 7" transform="translate(22.61 90.454)">
        <path id="Caminho_1" data-name="Caminho 1" d="M313.522,117.068,277.792,18.925A22.436,22.436,0,0,0,256.536,4H204.525V26.614h52.011l33.016,90.454H176.258l-8.367-22.613h36.634V71.841H114.071V94.454h29.85l33.016,90.454H158.167c-5.653-40.93-41.157-71.006-84.8-67.614C36.28,120.233,5.3,150.309,1.455,187.4c-4.975,48.393,31.433,87.967,78.7,87.967,40.478,0,72.589-29.171,78.017-67.841h92.715c5.653,40.93,41.383,71.006,84.8,67.614,37.086-2.94,68.067-33.016,71.911-70.1,4.975-48.393-31.433-87.967-78.695-87.967ZM184.4,139.681h88.645a76.807,76.807,0,0,0-22.161,45.227H200.906ZM80.15,252.749a56.534,56.534,0,0,1,0-113.068c27.815,0,50.428,19.221,55.4,45.227H68.844v22.613h66.71C130.578,233.527,107.965,252.749,80.15,252.749Zm248.749,0A56.544,56.544,0,0,1,300.406,147.37l23.292,64,21.257-7.689-23.066-63.318c2.488-.226,4.749-.678,7.01-.678a56.534,56.534,0,1,1,0,113.068Z" transform="translate(-1 -4)" fill="#fff"/>
      </g>
    </g>
    <path id="Caminho_2" data-name="Caminho 2" d="M47.51-18.555H17.725L11.035,0H1.367L28.516-71.094h8.2L63.916,0H54.3ZM20.557-26.27h24.17L32.617-59.521ZM73.486,0V-71.094H93.555a32.306,32.306,0,0,1,16.406,4.1,27.74,27.74,0,0,1,11.011,11.67A37.985,37.985,0,0,1,124.9-37.939V-33.4a38.118,38.118,0,0,1-3.882,17.627A27.305,27.305,0,0,1,109.937-4.15,34.364,34.364,0,0,1,93.164,0Zm9.375-63.379V-7.666h9.863q10.84,0,16.87-6.738t6.03-19.189v-4.15q0-12.109-5.688-18.823T93.8-63.379Zm68.311-7.715,23.242,58.008,23.242-58.008h12.158V0h-9.375V-27.686l.879-29.883L177.979,0H170.8L147.51-57.422l.928,29.736V0h-9.375V-71.094ZM236.426,0h-9.375V-71.094h9.375ZM308.2,0h-9.424L262.988-54.785V0h-9.424V-71.094h9.424l35.889,55.029V-71.094H308.2Z" transform="translate(101.215 473.047)" fill="#fff"/>
  </g>
</svg>
